<svg width="62.5" height="31.25" viewBox="0 0 62.5 31.25" xmlns="http://www.w3.org/2000/svg"><g id="svgGroup" stroke-linecap="round" fill-rule="evenodd" font-size="9pt" stroke="#ffffff" stroke-width="0.50mm" fill="#ffffff" style="stroke:#ffffff;stroke-width:0.50mm;fill:#ffffff"><path d="M 56.25 31.25 L 37.5 31.25 L 37.5 0 L 56.25 0 L 56.25 6.25 L 62.5 6.25 L 62.5 25 L 56.25 25 L 56.25 31.25 Z M 6.25 6.25 L 0 6.25 L 0 12.5 L 6.25 12.5 L 6.25 18.75 L 18.75 18.75 L 18.75 25 L 25 25 L 25 18.75 L 18.75 18.75 L 18.75 12.5 L 6.25 12.5 L 6.25 6.25 Z M 43.75 6.25 L 43.75 25 L 56 25 L 56 6.25 L 43.75 6.25 Z M 25 6.25 L 6.25 6.25 L 6.25 0 L 25 0 L 25 6.25 Z M 18.75 25 L 0 25 L 0 31.25 L 18.75 31.25 L 18.75 25 Z"/></g></svg>