<svg width="187.5" height="87.5" viewBox="0 0 187.5 87.5" xmlns="http://www.w3.org/2000/svg"><g id="svgGroup" stroke-linecap="round" fill-rule="evenodd" font-size="9pt" stroke="#000000" stroke-width="1mm" fill="#ffffff" style="stroke:#000000;stroke-width:1mm;fill:#ffffff"><path d="M 75 87.5 L 12.5 87.5 L 12.5 75 L 0 75 L 0 62.5 L 25 62.5 L 25 75 L 62.5 75 L 62.5 50 L 12.5 50 L 12.5 37.5 L 0 37.5 L 0 12.5 L 12.5 12.5 L 12.5 0 L 75 0 L 75 12.5 L 87.5 12.5 L 87.5 25 L 62.5 25 L 62.5 12.5 L 25 12.5 L 25 37.5 L 75 37.5 L 75 50 L 87.5 50 L 87.5 75 L 75 75 L 75 87.5 Z M 162.5 87.5 L 100 87.5 L 100 0 L 162.5 0 L 162.5 12.5 L 175 12.5 L 175 25 L 187.5 25 L 187.5 62.5 L 175 62.5 L 175 75 L 162.5 75 L 162.5 87.5 Z M 125 12.5 L 125 75 L 150 75 L 150 62.5 L 162.5 62.5 L 162.5 25 L 150 25 L 150 12.5 L 125 12.5 Z"/></g></svg>