<svg width="125" height="125" viewBox="0 0 125 125" fill="none" xmlns="http://www.w3.org/2000/svg">
<rect width="125" height="125" rx="12" fill="white"/>
<path d="M116.328 40.6067C116.195 40.4656 116.074 40.3131 115.968 40.1511C114.979 38.4821 113.881 36.8798 112.682 35.3545C111.533 33.789 110.275 32.3064 108.917 30.9177C108.126 30.1263 107.382 29.2869 106.519 28.5194C104.38 26.4367 102.078 24.528 99.6357 22.8116C97.4397 21.1948 95.1315 19.7362 92.7287 18.4467C91.0739 17.5594 89.4191 16.7439 87.7163 16.0484C85.618 15.0258 83.4641 14.121 81.265 13.3384C78.2 12.263 75.046 11.4605 71.8398 10.9401C69.9917 10.6219 68.1253 10.4217 66.2518 10.3406C64.4771 10.3406 62.7024 10.2207 60.9516 10.3406C57.1905 10.4824 53.4612 11.0865 49.8476 12.1393C46.0683 13.231 42.46 14.8455 39.1274 16.9358C37.4481 17.9709 35.8451 19.1251 34.3308 20.3893C32.5256 21.9027 30.8491 23.5632 29.3184 25.3537C27.3084 27.6976 25.5257 30.2271 23.9943 32.9083C22.3718 35.7706 21.0689 38.8027 20.1091 41.9498C19.383 44.2986 18.8615 46.7058 18.5502 49.1446C18.5384 49.3522 18.5384 49.5604 18.5502 49.7681C20.5311 43.6518 24.1372 38.1889 28.9827 33.9635C29.1506 34.1554 28.9827 34.2753 28.9827 34.3712C27.7972 36.3382 26.7937 38.4093 25.9849 40.5588C24.7823 43.6929 23.9297 46.9503 23.4427 50.2717C22.9834 53.6968 22.8229 57.1554 22.963 60.6083C22.9857 62.3593 23.3018 64.0941 23.8984 65.7406C24.3667 67.2125 25.3118 68.4866 26.5844 69.362C27.487 69.929 28.5182 70.259 29.5823 70.3213C30.9297 70.3609 32.2781 70.2807 33.6114 70.0815C35.5636 69.7905 37.5384 69.6781 39.5111 69.7457C41.8964 69.8817 44.204 70.6426 46.2023 71.9521C47.538 72.8136 48.7624 73.8366 49.8476 74.9979C49.9791 75.1656 50.0993 75.3419 50.2074 75.5255H49.5119H42.437C41.5639 75.5046 40.6944 75.6427 39.8708 75.9332C39.2857 76.122 38.7476 76.4337 38.2926 76.8473C37.8377 77.2609 37.4763 77.7669 37.2327 78.3315C36.9903 78.9233 36.8996 79.5663 36.9689 80.2021C37.1514 81.4353 37.6653 82.5958 38.4559 83.5597C39.0794 84.3991 39.703 85.2625 40.4224 85.958C41.2213 86.9137 42.1786 87.725 43.2524 88.3563C44.9044 89.2973 46.7336 89.8852 48.6245 90.083C49.8476 90.2269 51.0228 90.4188 52.2939 90.5387L55.1718 90.7785C56.6108 90.7785 58.0497 91.0183 59.4887 91.1862C60.2584 91.2697 60.9985 91.5294 61.6516 91.9454C62.3046 92.3613 62.8529 92.9222 63.254 93.5845C64.2373 95.0474 65.1726 96.5583 66.1079 98.0453C68.1384 101.323 70.161 104.609 72.1755 107.902C73.1588 109.533 74.1661 111.188 75.1254 112.867C75.4403 113.361 75.6548 113.913 75.7566 114.49C75.8583 115.067 75.8453 115.659 75.7184 116.231C75.5915 116.804 75.353 117.346 75.0167 117.826C74.6804 118.306 74.2528 118.715 73.7584 119.03C73.2639 119.345 72.7123 119.56 72.1349 119.661C71.5576 119.763 70.9658 119.75 70.3935 119.623C69.8211 119.496 69.2794 119.258 68.7992 118.921C68.319 118.585 67.9098 118.158 67.5948 117.663C66.8993 116.488 66.2518 115.265 65.5563 114.162C63.6137 110.852 61.6471 107.566 59.6805 104.257C59.5767 104.078 59.4563 103.909 59.3208 103.753C59.1905 103.642 59.0246 103.58 58.8531 103.58C58.6816 103.58 58.5158 103.642 58.3855 103.753C58.3153 103.797 58.2549 103.854 58.208 103.922C58.1611 103.99 58.1288 104.067 58.113 104.148C58.0973 104.229 58.0984 104.313 58.1164 104.393C58.1344 104.474 58.1689 104.55 58.2176 104.617C58.5773 105.312 58.9611 106.032 59.3688 106.727L63.3979 113.73L64.7649 116.128C64.9729 116.465 65.1343 116.828 65.2445 117.207C65.3935 117.726 65.4195 118.273 65.3207 118.804C65.2218 119.334 65.0007 119.835 64.675 120.265C64.3492 120.696 63.9276 121.044 63.4437 121.284C62.9598 121.523 62.4268 121.647 61.8869 121.644C61.0489 121.664 60.2241 121.433 59.5188 120.98C58.8135 120.526 58.2601 119.873 57.9298 119.102C57.2823 117.591 56.5388 116.128 55.7953 114.665L52.054 107.063C51.8622 106.703 51.7183 106.343 51.5024 106.008C51.3619 105.772 51.1927 105.554 50.9988 105.36C50.884 105.256 50.7343 105.198 50.5791 105.198C50.4239 105.198 50.2742 105.256 50.1594 105.36C50.0255 105.436 49.9259 105.56 49.8812 105.708C49.8366 105.855 49.8503 106.014 49.9196 106.151L50.1354 106.583C51.6224 109.605 53.1333 112.627 54.6442 115.649C55.0519 116.488 55.3876 117.351 55.8433 118.047C56.1545 118.677 56.2264 119.399 56.0456 120.078C55.8647 120.758 55.4434 121.348 54.86 121.74C54.3717 122.068 53.8107 122.273 53.2257 122.335C52.6407 122.398 52.0492 122.317 51.5024 122.1C50.9666 121.921 50.4754 121.629 50.0617 121.244C49.6481 120.86 49.3216 120.391 49.1042 119.87C48.2888 117.951 47.4973 116.056 46.7059 114.162C45.9145 112.267 44.9552 110.444 44.0918 108.574C43.852 108.022 43.6121 107.494 43.3483 106.967C43.2838 106.807 43.1623 106.677 43.0072 106.601C42.852 106.526 42.6745 106.511 42.5089 106.559C42.4056 106.573 42.3069 106.61 42.2206 106.668C42.1343 106.727 42.0627 106.804 42.0115 106.895C41.9603 106.986 41.9309 107.087 41.9257 107.191C41.9205 107.295 41.9395 107.399 41.9813 107.494C41.9813 107.806 42.2211 108.094 42.3411 108.406C43.8999 111.811 45.4588 115.241 47.1376 118.646C47.4064 119.252 47.4651 119.931 47.3043 120.574C47.1436 121.217 46.7726 121.788 46.2502 122.196C45.7966 122.589 45.2438 122.851 44.6519 122.953C44.0599 123.054 43.4515 122.992 42.8927 122.771C42.3031 122.608 41.7618 122.305 41.3149 121.888C40.8681 121.47 40.5289 120.95 40.3265 120.373C39.607 118.479 38.8875 116.584 38.1441 114.689C37.9159 114.125 37.6433 113.58 37.3287 113.058C36.7932 112.228 36.0142 111.583 35.0983 111.212L34.6186 110.972C34.6186 110.684 34.7865 110.42 34.8345 110.157C35.0392 109.21 34.8944 108.222 34.4268 107.375C33.9016 106.255 33.0701 105.307 32.0285 104.641L31.6688 104.425C31.5524 104.368 31.4597 104.272 31.4071 104.153C31.3545 104.035 31.3452 103.902 31.381 103.777C31.4176 103.458 31.4176 103.137 31.381 102.818C31.4083 101.694 31.0902 100.589 30.4696 99.6521C29.8275 98.5346 28.8066 97.6839 27.5917 97.2538L27.3759 97.1339C27.3759 96.6783 27.5917 96.1986 27.7356 95.7189C27.8682 95.2729 27.8682 94.798 27.7356 94.3519C27.4894 93.2819 26.9495 92.3019 26.1767 91.522C25.7034 91.0463 25.1241 90.6896 24.4862 90.4812C23.8484 90.2727 23.1702 90.2185 22.5074 90.3228C20.8286 90.5387 19.1498 90.8025 17.471 91.0423L14.2094 91.426C14.0629 91.462 13.9085 91.4458 13.7728 91.3801C13.6371 91.3144 13.5285 91.2034 13.4659 91.0663C12.8423 90.0111 12.1948 88.9798 11.6192 87.9246C10.0946 85.1134 8.83415 82.1669 7.85394 79.1229C6.69929 75.4664 5.89622 71.7081 5.45567 67.899C5.19112 65.9589 5.03897 64.005 5 62.0473C5 61.4477 5 60.8241 5 60.2246C5 58.4978 5 56.7711 5.23983 55.0443C5.51308 51.6497 6.09099 48.2866 6.96658 44.9956C7.6648 42.4208 8.53821 39.8967 9.58069 37.441C11.0818 33.9245 12.9296 30.5663 15.0967 27.4162C16.2453 25.7555 17.4781 24.1546 18.79 22.6197C20.0688 21.1374 21.43 19.7281 22.8671 18.3988C24.6098 16.7992 26.4435 15.3018 28.3591 13.914C29.8701 12.8108 31.4529 11.8035 33.1557 10.8442C35.4318 9.52626 37.7865 8.34891 40.2066 7.31875C42.6777 6.25875 45.2276 5.39276 47.8331 4.72862C50.2061 4.16661 52.6079 3.73428 55.0279 3.43355C58.3224 3.04682 61.6422 2.91852 64.9567 3.04983C66.7794 3.04983 68.5781 3.33762 70.3768 3.52948C73.0728 3.85683 75.7418 4.3778 78.3631 5.08836C80.8778 5.81393 83.3316 6.73611 85.7018 7.84637C88.6241 9.10533 91.4325 10.6138 94.0957 12.3551C96.2355 13.7222 98.2716 15.2452 100.187 16.9118C101.123 17.7512 102.082 18.5666 102.969 19.3101C105.267 21.5835 107.369 24.0465 109.253 26.6728C111.713 30.109 113.75 33.8292 115.32 37.7528C115.632 38.5202 115.944 39.2637 116.232 40.1511C116.291 40.3237 116.339 40.4999 116.376 40.6787L116.328 40.6067Z" fill="#1E427F"/>
<path d="M119.972 60.7271C119.984 60.7986 119.984 60.8714 119.972 60.9429C119.972 61.8063 119.972 62.6697 119.972 63.5331C119.972 64.7562 119.972 65.9313 119.804 67.1784C119.637 68.4255 119.804 68.9532 119.613 69.8165C119.397 71.5193 119.181 73.2221 118.869 74.9009C118.337 77.948 117.534 80.9417 116.471 83.8464C115.943 85.2374 115.44 86.6284 114.888 87.9714C113.765 90.6863 112.4 93.2949 110.811 95.7658C109.991 97.0964 109.095 98.3777 108.125 99.603C107.237 100.682 106.302 101.714 105.391 102.769C104.863 103.368 104.336 103.992 103.784 104.543C103.286 105.07 102.757 105.566 102.201 106.03C101.362 106.774 100.522 107.517 99.6349 108.237C98.7476 108.956 97.7883 109.724 96.805 110.395C95.438 111.307 94.071 112.218 92.632 113.057C91.091 113.968 89.4883 114.769 87.8355 115.456C86.4924 116.007 85.1494 116.559 83.8064 117.062C83.2068 117.302 82.5593 117.422 81.9117 117.614C81.5772 117.71 81.2259 117.731 80.8821 117.677C80.5384 117.624 80.2105 117.496 79.9212 117.302C79.3298 116.944 78.8485 116.429 78.5302 115.815C77.7867 114.472 77.1152 113.081 76.2998 111.762C74.1653 108.213 71.9829 104.711 69.8245 101.186C68.7932 99.5311 67.8099 97.8523 66.7787 96.2215C65.7474 94.5907 65.1718 93.6793 64.3804 92.4802C63.762 91.5629 62.9357 90.8047 61.9689 90.2671C61.002 89.7295 59.9219 89.4277 58.8164 89.3864C57.1856 89.3864 55.5787 89.1706 54.0199 89.0027C51.8614 88.7629 49.679 88.4991 47.5206 88.1873C45.7491 87.8924 44.0911 87.1214 42.724 85.9569C41.6905 85.1161 40.7926 84.1212 40.0619 83.007C39.6383 82.4006 39.2537 81.7678 38.9108 81.1124C38.6587 80.6396 38.5581 80.1007 38.6224 79.5688C38.6868 79.0369 38.913 78.5376 39.2705 78.1385C39.5365 77.8021 39.8706 77.5257 40.2508 77.3273C40.631 77.1289 41.0488 77.0131 41.4769 76.9874C42.4122 76.9874 43.3236 76.9874 44.2589 76.9874C52.5569 76.7715 60.8549 76.9874 69.1529 76.9874C70.1666 76.9782 71.1763 77.1156 72.1508 77.3951C72.967 77.6315 73.7151 78.059 74.3332 78.6422C75.1385 79.435 75.8765 80.2933 76.5396 81.2083C77.7148 82.7672 78.9379 84.3021 80.161 85.813C80.7464 86.5341 81.3709 87.2227 82.0316 87.8755C83.1563 88.9779 84.4322 89.9147 85.8209 90.6575C87.7306 91.6605 89.8515 92.1949 92.0084 92.2164C94.7372 92.2385 97.438 91.6656 99.9227 90.5376C102.155 89.5592 104.232 88.2583 106.086 86.6764C107.319 85.6273 108.474 84.489 109.54 83.2708C111.586 80.9172 113.363 78.3432 114.84 75.5964C115.97 73.4515 116.932 71.2224 117.718 68.9292C118.5 66.6667 119.148 64.3604 119.661 62.0222C119.661 61.7104 119.661 61.3746 119.828 61.0389C119.815 60.9274 119.815 60.8146 119.828 60.7031L119.972 60.7271Z" fill="#1AA4DE"/>
<path d="M15.3138 103.779C15.3013 103.006 15.5183 102.247 15.9374 101.597C16.1432 101.21 16.4509 100.887 16.8272 100.663C17.2035 100.439 17.6339 100.322 18.0718 100.326C19.1477 100.282 20.2164 100.129 21.2615 99.87L25.6504 98.8147C26.5557 98.5531 27.5245 98.6211 28.3844 99.0066C28.8641 99.2293 29.2839 99.5629 29.6092 99.98C29.9345 100.397 30.1558 100.885 30.2551 101.405C30.3154 101.834 30.3154 102.27 30.2551 102.7C30.2044 103.304 29.9705 103.877 29.5848 104.345C29.1991 104.812 28.6798 105.15 28.0966 105.314C27.2599 105.592 26.4016 105.801 25.5305 105.938C23.5879 106.321 21.6213 106.729 19.6787 107.161C18.885 107.376 18.0427 107.325 17.2804 107.017C16.6689 106.733 16.1555 106.273 15.8054 105.697C15.4553 105.12 15.2842 104.453 15.3138 103.779Z" fill="#1AA4DE"/>
<path d="M16.9896 99.4399C16.2845 99.5103 15.5755 99.3526 14.9667 98.99C14.358 98.6273 13.8817 98.0789 13.608 97.4254C13.3948 96.9117 13.287 96.3603 13.2911 95.8041C13.2952 95.2479 13.4112 94.6982 13.632 94.1877C13.7911 93.8006 14.0549 93.4655 14.3938 93.2198C14.7326 92.9741 15.1332 92.8276 15.5506 92.7967L18.3566 92.341L23.8006 91.4537C24.1495 91.4377 24.4977 91.4981 24.8208 91.6306C25.1439 91.7632 25.4342 91.9647 25.6713 92.2211C26.2658 92.7963 26.6176 93.5772 26.6546 94.4036C26.7562 95.0487 26.6646 95.7094 26.3915 96.3026C26.1184 96.8958 25.6759 97.3949 25.1197 97.7372C24.7731 97.9431 24.3906 98.0814 23.9925 98.1449C22.3137 98.5046 20.6349 98.8164 18.9322 99.1521L17.6611 99.4159L16.9896 99.4399Z" fill="#1AA4DE"/>
<path d="M23.5632 113.993C23.0032 114.03 22.4432 113.924 21.9355 113.685C21.4279 113.446 20.9894 113.081 20.6613 112.626C20.2412 112.041 20.0301 111.331 20.0617 110.612C20.0958 110.073 20.2006 109.541 20.3735 109.029C20.491 108.632 20.7213 108.278 21.0364 108.01C21.3515 107.742 21.7377 107.571 22.1482 107.518C23.2034 107.302 24.2826 107.158 25.3619 106.942L29.4389 106.031C30.1176 105.875 30.8228 105.875 31.5014 106.031C31.8701 106.122 32.215 106.292 32.5128 106.528C32.8106 106.763 33.0546 107.06 33.2282 107.398C33.5491 107.935 33.7284 108.544 33.7494 109.169C33.7704 109.794 33.6323 110.414 33.3481 110.971C33.1366 111.378 32.8338 111.731 32.4636 112.001C32.0933 112.271 31.6655 112.453 31.2136 112.53L24.7623 113.945C24.3306 113.921 23.8749 113.945 23.5632 113.993Z" fill="#1AA4DE"/>
<path d="M28.9814 120.351C28.5395 120.38 28.0963 120.318 27.6795 120.169C27.2627 120.019 26.8813 119.785 26.5593 119.481C26.2372 119.177 25.9815 118.81 25.8082 118.402C25.6348 117.995 25.5475 117.556 25.5518 117.113C25.4936 116.424 25.6352 115.733 25.9595 115.122C26.0991 114.869 26.291 114.648 26.5226 114.474C26.7541 114.3 27.02 114.178 27.3026 114.115C28.4298 113.875 29.7008 113.683 30.7081 113.492L33.7779 112.964C34.1764 112.893 34.5857 112.912 34.9758 113.02C35.3659 113.128 35.7269 113.322 36.0323 113.587C36.7572 114.193 37.2281 115.049 37.3513 115.986C37.401 116.52 37.2837 117.056 37.0156 117.521C36.7628 118.018 36.3927 118.446 35.9371 118.768C35.4816 119.089 34.9545 119.295 34.4014 119.367L30.3004 120.063L28.9814 120.351Z" fill="#1AA4DE"/>
<path d="M97.1395 82.9866L96.9237 82.5789C96.6359 81.9074 96.3481 81.2119 96.0843 80.5404C96.0483 80.3825 96.0483 80.2186 96.0843 80.0608C96.0843 79.8929 95.8204 79.749 95.7245 79.5811C95.3209 78.7191 94.7114 77.9696 93.9498 77.3987L93.5901 77.0869C93.3836 76.8801 93.2676 76.5997 93.2676 76.3075C93.2676 76.0152 93.3836 75.7349 93.5901 75.528C93.8997 75.1658 94.2932 74.8847 94.7362 74.7091C95.1793 74.5336 95.6585 74.4689 96.1322 74.5207C96.4182 74.5396 96.7004 74.596 96.9716 74.6886C97.373 74.7864 97.7293 75.0177 97.982 75.3445C98.2347 75.6713 98.3689 76.0742 98.3626 76.4873C98.3517 76.5829 98.3517 76.6795 98.3626 76.7751C98.4727 76.7418 98.5776 76.6933 98.6744 76.6312C99.4805 76.1685 100.332 75.7908 101.217 75.504C101.408 75.4532 101.593 75.3808 101.768 75.2882C102.08 75.1203 102.104 74.9764 101.768 74.7126C101.432 74.4488 100.977 73.8972 100.641 73.4655C99.944 72.7593 99.4831 71.8544 99.3219 70.8754C99.2017 70.2173 99.2017 69.5429 99.3219 68.8848C99.3904 68.616 99.4953 68.3578 99.6337 68.1174C99.9455 67.6617 100.281 67.23 100.593 66.7983C100.634 66.7165 100.701 66.6507 100.783 66.6115C100.866 66.5724 100.96 66.5621 101.049 66.5825C100.418 67.7389 100.214 69.0802 100.473 70.3717C100.539 70.2283 100.62 70.0917 100.713 69.964C100.869 69.6825 101.094 69.4448 101.367 69.2729C101.639 69.1011 101.95 69.0006 102.272 68.9807C102.619 68.9532 102.966 69.0298 103.269 69.2007C103.573 69.3716 103.818 69.629 103.975 69.9401C104.143 70.213 104.243 70.5222 104.268 70.8418C104.293 71.1615 104.241 71.4824 104.116 71.778C103.992 72.0735 103.799 72.3351 103.553 72.541C103.308 72.7469 103.016 72.8912 102.703 72.9619C102.528 72.9859 102.351 72.9859 102.176 72.9619C102 72.9486 101.824 72.9486 101.648 72.9619C102.337 73.7552 103.146 74.435 104.047 74.9764C104.91 75.504 105.821 75.9597 106.709 76.4394V76.5833H106.445C105.571 76.4557 104.689 76.3995 103.807 76.4154C102.286 76.4139 100.797 76.8466 99.5138 77.6625C98.8872 78.0443 98.3604 78.5696 97.9767 79.1951C97.5931 79.8206 97.3637 80.5283 97.3074 81.2599C97.2834 81.7232 97.2834 82.1875 97.3074 82.6509C97.3189 82.7545 97.3189 82.859 97.3074 82.9627L97.1395 82.9866Z" fill="#D95327"/>
<path d="M90.9296 70.8262C91.0369 70.304 91.0369 69.7655 90.9296 69.2433C90.9179 69.0836 90.9179 68.9233 90.9296 68.7637C90.9487 68.0859 90.765 67.4178 90.402 66.845C89.8744 65.8538 89.3228 64.8705 88.7472 63.8952C88.7472 63.6793 88.4594 63.4635 88.3155 63.2476L88.6513 63.4395C89.8504 64.3029 91.0495 65.2142 92.2007 66.0056C92.9855 66.5751 93.901 66.938 94.8628 67.0609C96.207 67.1307 97.5374 66.7602 98.6521 66.0056C99.7904 65.2876 100.837 64.434 101.77 63.4635C101.914 63.3196 102.082 63.2237 102.321 63.0078C102.321 63.2237 102.321 63.3196 102.321 63.3915C101.76 64.5496 101.051 65.6298 100.211 66.6052C99.8049 67.0355 99.3152 67.3783 98.772 67.6125C97.8644 68.0272 96.8823 68.2538 95.8848 68.2785C94.8873 68.3033 93.8951 68.1256 92.9682 67.7564L92.4166 67.5405C91.8889 67.3727 91.817 67.4206 91.841 67.9722C91.8295 68.4481 91.8779 68.9234 91.9849 69.3872C92.1872 70.5018 91.9555 71.6516 91.3373 72.6009C91.0438 73.0638 90.7065 73.4975 90.3301 73.896C90.1254 74.1169 89.9332 74.3491 89.7545 74.5915C89.5386 74.8553 89.5866 75.0711 89.8984 75.215L90.9776 75.6227C91.5532 75.8865 92.1288 76.1263 92.6804 76.4141C92.8277 76.4771 92.9609 76.569 93.0721 76.6843C93.1833 76.7997 93.2703 76.9361 93.3279 77.0857C93.4425 77.2148 93.5809 77.3207 93.7356 77.3974C94.3257 77.9653 94.8561 78.5921 95.3185 79.2681C95.5266 79.5308 95.6399 79.8562 95.6399 80.1914C95.6399 80.5266 95.5266 80.852 95.3185 81.1147C95.0345 81.5589 94.8012 82.0335 94.623 82.5297C94.567 82.6232 94.5028 82.7115 94.4311 82.7935C94.1913 82.7935 94.2632 82.5057 94.2632 82.3618C94.3469 81.7411 94.3469 81.1119 94.2632 80.4912C94.0847 79.4255 93.5109 78.4664 92.6564 77.8051C91.3635 76.8051 89.7819 76.2499 88.1476 76.2223C87.1532 76.1578 86.1546 76.2142 85.1738 76.3902C84.9746 76.4138 84.7734 76.4138 84.5742 76.3902L84.838 76.1983C86.3567 75.5318 87.7769 74.6603 89.059 73.6082C89.5935 73.2222 90.0358 72.7226 90.354 72.1452C90.4403 72.0089 90.5126 71.8643 90.5699 71.7135L90.7378 71.3538L90.9536 70.7542L90.9296 70.8262Z" fill="#29AFE5"/>
<path d="M93.7371 72.2903C93.7493 72.2109 93.7493 72.13 93.7371 72.0505C93.7148 71.7289 93.7869 71.4078 93.9445 71.1266C94.1021 70.8454 94.3385 70.6164 94.6245 70.4677C94.9355 70.2793 95.2921 70.1797 95.6557 70.1797C96.0193 70.1797 96.376 70.2793 96.687 70.4677C96.9674 70.6397 97.2042 70.8743 97.3789 71.1531C97.5536 71.4318 97.6616 71.7471 97.6943 72.0745C97.7463 72.4036 97.6932 72.7407 97.5425 73.0378C97.3918 73.3349 97.1511 73.5769 96.8549 73.7293C96.3646 73.9708 95.8141 74.0626 95.272 73.9931C95.0566 73.9907 94.8441 73.9437 94.6478 73.8551C94.4515 73.7664 94.2757 73.638 94.1314 73.4781C93.9872 73.3181 93.8777 73.1299 93.8099 72.9255C93.742 72.7211 93.7172 72.5048 93.7371 72.2903Z" fill="#1E427F"/>
<path d="M90.7364 71.4043L90.5685 71.7641C90.5685 71.908 90.3047 72.0279 90.2088 72.1718C90.0485 72.3746 89.8382 72.5322 89.5984 72.6289C89.3587 72.7256 89.0979 72.7582 88.8418 72.7234C88.707 72.7482 88.5688 72.7482 88.4341 72.7234C87.9832 72.4819 87.6214 72.1027 87.4013 71.6411C87.1813 71.1794 87.1146 70.6595 87.2109 70.1572C87.2744 69.8887 87.4039 69.6403 87.5878 69.4346C87.7717 69.2289 88.0042 69.0725 88.264 68.9795C88.5237 68.8866 88.8026 68.8601 89.0753 68.9024C89.3479 68.9447 89.6057 69.0546 89.8251 69.2219C90.1557 69.4806 90.4537 69.7786 90.7124 70.1093C90.8066 70.2206 90.8749 70.3516 90.9122 70.4926C90.9495 70.6337 90.955 70.7813 90.9283 70.9247L90.7364 71.4043Z" fill="#29AFE5"/>
<path d="M95.7523 66.7705C95.2983 66.7835 94.8574 66.6171 94.5252 66.3074C94.1931 65.9976 93.9963 65.5695 93.9775 65.1157C93.9189 64.9529 93.9189 64.7748 93.9775 64.6121C94.1307 64.256 94.3906 63.9563 94.7214 63.7544C95.0522 63.5525 95.4376 63.4583 95.8242 63.4849C96.202 63.4992 96.5651 63.6354 96.859 63.8731C97.153 64.1109 97.3621 64.4374 97.455 64.8039C97.5031 65.009 97.5031 65.2224 97.455 65.4275C97.356 65.8061 97.1361 66.1421 96.8288 66.3845C96.5215 66.6268 96.1436 66.7624 95.7523 66.7705Z" fill="#1E427F"/>
<path d="M36.7539 43.2691V32.1172H38.9123V43.2691H36.7539ZM38.3368 43.2691V41.4225H44.0207V43.3411L38.3368 43.2691Z" fill="#1E427F"/>
<path d="M45.5781 43.2691V32.1172H47.7366V43.2691H45.5781ZM47.161 34.0358V32.1172H53.2526V34.0358H47.161ZM47.161 38.5206V36.6259H52.7969V38.4966L47.161 38.5206ZM47.161 43.3171V41.4225H53.3485V43.3171H47.161Z" fill="#1E427F"/>
<path d="M54.3105 43.2691L58.8193 32.1172H60.594L64.9589 43.2691H62.5606L59.2989 34.2277H60.1623L56.6609 43.3651L54.3105 43.2691ZM56.7088 41.2066V39.3839H62.7045V41.2066H56.7088Z" fill="#1E427F"/>
<path d="M66.4922 43.2691V32.1172H68.6506V43.2691H66.4922ZM67.9791 43.2691V41.4225H70.8091C71.4624 41.4434 72.1092 41.2858 72.6797 40.9668C73.2253 40.6857 73.6697 40.2413 73.9508 39.6957C74.2692 39.0989 74.4263 38.4293 74.4065 37.7531C74.4266 37.0846 74.2694 36.4226 73.9508 35.8345C73.6486 35.3046 73.2096 34.8656 72.6797 34.5634C72.1047 34.256 71.4611 34.0992 70.8091 34.1078H67.9312V32.1891H70.8331C71.6511 32.1717 72.465 32.3101 73.2313 32.5968C73.9175 32.8647 74.5448 33.2638 75.078 33.772C75.5948 34.2754 76.003 34.8794 76.2771 35.5467C76.8519 36.9698 76.8519 38.5604 76.2771 39.9835C76.0086 40.6539 75.5998 41.259 75.078 41.7582C74.5558 42.2687 73.9358 42.6684 73.2553 42.9334C72.4921 43.2317 71.6759 43.3705 70.857 43.3411L67.9791 43.2691Z" fill="#1E427F"/>
<path d="M78.3633 43.2691V32.1172H80.5217V43.2691H78.3633Z" fill="#1E427F"/>
<path d="M82.7988 43.2691V32.1172H84.3097L84.9573 34.2996V43.2691H82.7988ZM90.5213 43.2691L83.902 34.7313L84.3097 32.1172L90.9529 40.679L90.5213 43.2691ZM90.5213 43.2691L89.8977 41.1826V32.1172H92.0561V43.2691H90.5213Z" fill="#1E427F"/>
<path d="M99.4677 43.4615C98.7093 43.4565 97.9595 43.3016 97.2612 43.0058C96.5771 42.715 95.9575 42.2911 95.4386 41.7587C94.3622 40.6749 93.7586 39.2091 93.7598 37.6817C93.7604 36.9074 93.9153 36.141 94.2154 35.4273C94.5152 34.748 94.938 34.1301 95.4625 33.6046C95.9911 33.0788 96.6188 32.663 97.3092 32.3815C98.0733 32.0864 98.8888 31.9477 99.7075 31.9738C100.581 31.9625 101.447 32.1341 102.25 32.4774C102.996 32.7948 103.655 33.2886 104.168 33.9164L102.705 35.3793C102.372 34.9219 101.926 34.5584 101.41 34.3241C100.877 34.0786 100.295 33.9556 99.7075 33.9644C99.0469 33.9474 98.3935 34.1045 97.8128 34.42C97.2803 34.74 96.8418 35.1951 96.5418 35.7391C96.2233 36.3359 96.0663 37.0055 96.0861 37.6817C96.0686 38.3653 96.2255 39.042 96.5418 39.6483C96.8373 40.1902 97.2746 40.6415 97.8069 40.9541C98.3391 41.2667 98.9463 41.4288 99.5636 41.423C100.185 41.4428 100.803 41.3111 101.362 41.0393C101.855 40.7941 102.258 40.3996 102.513 39.9121C102.788 39.3364 102.92 38.7029 102.897 38.0654L104.312 39.0487H99.5156V37.1301H105.223V37.4419C105.265 38.6033 105.018 39.757 104.504 40.7994C104.078 41.6617 103.389 42.3669 102.537 42.814C101.591 43.3007 100.53 43.5243 99.4677 43.4615Z" fill="#1E427F"/>
<path d="M42.7031 52.6007V46.7969H43.1588L43.3267 47.5403V52.6007H42.7031ZM46.7322 52.6007L43.0629 47.6363V46.7969L46.7082 51.7853L46.7322 52.6007ZM46.7322 52.6007L46.5404 51.9052V46.7969H47.1639V52.6007H46.7322Z" fill="#1AA4DE"/>
<path d="M48.6465 52.6007V46.7969H49.27V52.6007H48.6465ZM49.0542 47.3725V46.7969H52.4118V47.3725H49.0542ZM49.0542 49.9146V49.363H52.1959V49.9146H49.0542ZM49.0542 52.6007V52.0491H52.4597V52.6007H49.0542Z" fill="#1AA4DE"/>
<path d="M53.1816 47.3725V46.7969H57.9782V47.3725H53.1816ZM55.2202 52.6007V46.9648H55.8437V52.6007H55.2202Z" fill="#1AA4DE"/>
<path d="M60.1622 52.6007L58.2676 46.7969H58.8911L60.474 51.8093H60.1622L61.7211 46.7969H62.2007L63.7596 51.8093H63.5678L65.1506 46.7969H65.7742L63.9035 52.6007H63.4478L61.865 47.6123H62.0568L60.498 52.6007H60.1622Z" fill="#1AA4DE"/>
<path d="M69.1758 52.693C68.7791 52.6991 68.386 52.6172 68.0247 52.4532C67.6781 52.3049 67.3674 52.0841 67.1133 51.8056C66.844 51.5395 66.6318 51.2213 66.4898 50.8703C66.3445 50.4957 66.2712 50.097 66.2739 49.6952C66.2596 48.9122 66.5523 48.1547 67.0893 47.5847C67.3538 47.3048 67.674 47.0833 68.0292 46.9346C68.3844 46.7859 68.7669 46.7133 69.1519 46.7213C69.5463 46.7143 69.938 46.7877 70.303 46.9372C70.6551 47.088 70.9732 47.3083 71.2384 47.5847C71.5001 47.8521 71.7042 48.1705 71.8379 48.52C72.0024 48.8896 72.0842 49.2907 72.0778 49.6952C72.0866 50.0999 72.0046 50.5014 71.8379 50.8703C71.6992 51.2245 71.4959 51.5498 71.2384 51.8296C70.9769 52.0934 70.6676 52.3051 70.327 52.4532C69.9657 52.6172 69.5726 52.6991 69.1758 52.693ZM69.1758 52.0934C69.5897 52.107 69.9983 51.9986 70.351 51.7817C70.6821 51.5637 70.954 51.2671 71.1424 50.9183C71.3537 50.5457 71.4614 50.1234 71.4542 49.6952C71.4492 49.3685 71.3926 49.0448 71.2863 48.7359C71.1783 48.4582 71.0151 48.2053 70.8067 47.9924C70.6084 47.7718 70.3623 47.5995 70.0872 47.4888C69.7987 47.3689 69.4881 47.3117 69.1758 47.3209C68.7773 47.3147 68.3849 47.419 68.042 47.6222C67.6991 47.8254 67.4192 48.1195 67.2332 48.472C67.0374 48.8496 66.9385 49.2699 66.9455 49.6952C66.9385 50.0228 66.9955 50.3487 67.1133 50.6545C67.2126 50.9381 67.3675 51.199 67.569 51.4219C67.7758 51.6327 68.0197 51.8034 68.2885 51.9256C68.5656 52.0269 68.857 52.0836 69.1519 52.0934H69.1758Z" fill="#1AA4DE"/>
<path d="M73.2578 52.6016V46.7978H73.8814V52.6016H73.2578ZM73.6655 50.0115V49.4839H75.3443C75.6659 49.5039 75.983 49.401 76.2317 49.1961C76.3327 49.0958 76.4124 48.9761 76.466 48.8443C76.5196 48.7124 76.5459 48.571 76.5434 48.4287C76.5504 48.2858 76.5262 48.143 76.4723 48.0105C76.4185 47.8779 76.3363 47.7587 76.2317 47.6612C76.114 47.5497 75.9742 47.4643 75.8213 47.4106C75.6684 47.3568 75.5058 47.336 75.3443 47.3494H73.6655V46.7978H75.3443C75.6849 46.7875 76.0227 46.8616 76.3276 47.0137C76.5833 47.1462 76.7986 47.345 76.9511 47.5893C77.0978 47.8356 77.1726 48.118 77.167 48.4047C77.1758 48.6992 77.101 48.9903 76.9511 49.2441C76.7986 49.4883 76.5833 49.6871 76.3276 49.8197C76.0206 49.9634 75.6829 50.0293 75.3443 50.0115H73.6655ZM76.7833 52.6016L74.5529 49.9156L75.1524 49.7237L77.5507 52.6016H76.7833Z" fill="#1AA4DE"/>
<path d="M78.4844 52.6007V46.7969H79.1079V52.6007H78.4844ZM82.1537 52.6007L78.988 49.5789L82.0818 46.7969H82.9212L79.6116 49.7467V49.387L83.0171 52.6007H82.1537Z" fill="#1AA4DE"/>
<path d="M85.6035 52.6007V46.7969H86.251V52.6007H85.6035ZM86.0352 52.6007V52.0491H89.2249V52.6007H86.0352Z" fill="#1AA4DE"/>
<path d="M90.2832 52.6007V46.7969H90.9067V52.6007H90.2832ZM90.7149 52.6007V52.0491H93.9046V52.6007H90.7149Z" fill="#1AA4DE"/>
<path d="M96.9525 52.6944C96.5553 52.7055 96.161 52.6234 95.8013 52.4546C95.4504 52.3126 95.1321 52.1004 94.866 51.831C94.6012 51.5521 94.3898 51.227 94.2425 50.8717C93.9426 50.1004 93.9426 49.2448 94.2425 48.4735C94.3733 48.1167 94.587 47.7961 94.866 47.5381C95.1224 47.2624 95.4325 47.042 95.7773 46.8906C96.1437 46.7455 96.5345 46.6722 96.9285 46.6748C97.3411 46.664 97.7509 46.7459 98.1277 46.9146C98.4782 47.0556 98.7905 47.2775 99.039 47.5621L98.6073 47.9938C98.4171 47.7588 98.1692 47.577 97.8878 47.4662C97.5953 47.3442 97.2815 47.2813 96.9645 47.2813C96.6475 47.2813 96.3337 47.3442 96.0412 47.4662C95.766 47.577 95.5199 47.7492 95.3217 47.9698C95.1076 48.1875 94.9438 48.4495 94.842 48.7373C94.7242 49.0347 94.6672 49.3528 94.6741 49.6726C94.6671 50.0003 94.7242 50.3261 94.842 50.6319C94.9518 50.9159 95.1145 51.1763 95.3217 51.3994C95.5199 51.62 95.766 51.7922 96.0412 51.903C96.3252 52.0091 96.6253 52.0659 96.9285 52.0709C97.2737 52.0747 97.6162 52.0095 97.9358 51.879C98.2065 51.7497 98.4506 51.5707 98.6553 51.3514L99.087 51.7831C98.8155 52.0521 98.4989 52.2712 98.1516 52.4306C97.776 52.6052 97.3667 52.6953 96.9525 52.6944Z" fill="#1AA4DE"/>
</svg>
